<svg width="1920" height="754" viewBox="0 0 1920 754" fill="none" xmlns="http://www.w3.org/2000/svg">
<path d="M1839.32 180.387L1449.51 0L1224.04 161.398L877.313 272.828L650.841 409.243H339.191L8 496.188V795H1926V180.387H1839.32Z" fill="#F59F74"/>
<path d="M420.775 355.574L228 424.264V796L1994 601.5L1731 472.5L1450.19 375.307V214.152L1347.21 230.421L1230.43 311.127L1318.88 214.152L1434.24 164.088L1450.19 71.5702L1294.59 130.921L1450.19 0L1230.43 88.8934H1199.58L956.689 214.152L775.48 254.558L721.503 311.127L420.775 355.574Z" fill="#05293C"/>
<path d="M1698.97 487.724L1927 581.944V2301H6.99988V349.166H70.8478L481.299 0L741.252 121.931H777.736L1065.05 293.743L1279.4 349.166L1343.25 426.759L1698.97 487.724Z" fill="#F59F74"/>
<path d="M506.788 89.6067L480.43 0L27.0737 342.614H-52V1309L699.403 1150.48L1450.81 991.952L891.614 900.918H1513.55L415.47 797.328H1912L1113.02 542.911V511.285L1049.76 495.472L986.502 442.763L1165.74 511.285L1113.02 463.847L944.33 384.782L759.824 442.763L680.75 342.614L759.824 358.427L659.664 295.175H701.837L659.664 231.923L891.614 358.427L775.639 216.11L548.961 126.504H633.306L506.788 89.6067Z" fill="#05293C"/>
</svg>
