<?xml version="1.0" encoding="UTF-8"?>
<svg xmlns="http://www.w3.org/2000/svg" xmlns:xlink="http://www.w3.org/1999/xlink" viewBox="0 0 480 480" width="480px" height="480px">
<g id="surface96976985">
<rect x="0" y="0" width="480" height="480" style="fill:rgb(1.960784%,70.980394%,63.529414%);fill-opacity:1;stroke:none;"/>
<path style=" stroke:none;fill-rule:nonzero;fill:rgb(1.960784%,70.980394%,63.529414%);fill-opacity:1;" d="M 421.601562 100 C 413.898438 100 403.960938 96.351562 396.28125 90.691406 C 385.789062 82.949219 380 72.050781 380 60 C 380 47.550781 390.320312 30 413.269531 30 C 438.167969 30 460 48.839844 460 70.328125 C 460 92.101562 437.050781 100 421.628906 100 C 421.621094 100 421.609375 100 421.601562 100 Z M 421.601562 100 "/>
<path style=" stroke:none;fill-rule:nonzero;fill:rgb(86.666667%,17.254902%,0%);fill-opacity:1;" d="M 431.628906 80 C 431.621094 80 431.621094 80 431.609375 80 C 423.910156 80 413.96875 76.351562 406.289062 70.691406 C 395.789062 62.949219 390 52.050781 390 40 C 390 39.5 390.121094 38.949219 390.160156 38.441406 C 383.339844 44.621094 380 53.058594 380 60 C 380 72.058594 385.789062 82.960938 396.289062 90.691406 C 403.960938 96.351562 413.910156 100 421.601562 100 C 421.609375 100 421.609375 100 421.621094 100 C 436.929688 100 459.578125 92.191406 459.929688 70.789062 C 451.878906 77.230469 440.550781 80 431.628906 80 Z M 431.628906 80 "/>
<path style=" stroke:none;fill-rule:nonzero;fill:rgb(100%,75.686276%,2.745098%);fill-opacity:1;" d="M 69.441406 185.050781 C 69.441406 172.289062 137.859375 70 260 70 C 393.300781 70 400 177.320312 400 191.269531 C 400 196.558594 397.019531 200 392.460938 200 C 387.128906 200 383.871094 191.398438 373.550781 180.109375 C 351.078125 155.539062 305.339844 120 230 120 C 127.078125 120 80.589844 189.820312 73.769531 189.820312 C 69.050781 189.820312 69.441406 186.289062 69.441406 185.050781 Z M 69.441406 185.050781 "/>
<path style=" stroke:none;fill-rule:nonzero;fill:rgb(100%,62.7451%,0%);fill-opacity:1;" d="M 249.71875 90.75 C 157.011719 90.75 94.570312 154.539062 70.511719 188.621094 C 71.140625 189.289062 72.039062 189.828125 73.78125 189.828125 C 80.589844 189.820312 127.078125 120 230 120 C 305.339844 120 351.089844 155.539062 373.550781 180.121094 C 383.871094 191.398438 387.128906 200 392.460938 200 C 394.109375 200 395.460938 199.417969 396.628906 198.589844 C 387.648438 161.730469 352.589844 90.75 249.71875 90.75 Z M 249.71875 90.75 "/>
<path style=" stroke:none;fill-rule:nonzero;fill:rgb(12.941177%,58.823532%,95.294118%);fill-opacity:1;" d="M 389.988281 334.949219 C 389.988281 347.710938 321.558594 450 199.429688 450 C 66.128906 450 59.429688 342.679688 59.429688 328.730469 C 59.429688 323.441406 62.410156 320 66.96875 320 C 72.300781 320 75.558594 328.601562 85.878906 339.878906 C 108.339844 364.460938 154.089844 400 229.429688 400 C 332.351562 400 378.839844 330.179688 385.660156 330.179688 C 390.378906 330.179688 389.988281 333.710938 389.988281 334.949219 Z M 389.988281 334.949219 "/>
<path style=" stroke:none;fill-rule:nonzero;fill:rgb(39.215687%,70.980394%,96.470588%);fill-opacity:1;" d="M 209.710938 429.25 C 302.417969 429.25 364.859375 365.460938 388.917969 331.378906 C 388.289062 330.710938 387.390625 330.167969 385.648438 330.167969 C 378.828125 330.167969 332.339844 399.988281 229.417969 399.988281 C 154.078125 399.988281 108.328125 364.449219 85.871094 339.871094 C 75.550781 328.601562 72.300781 320 66.96875 320 C 65.320312 320 63.96875 320.578125 62.800781 321.410156 C 71.769531 358.261719 106.839844 429.25 209.710938 429.25 Z M 209.710938 429.25 "/>
<path style=" stroke:none;fill-rule:nonzero;fill:rgb(15.686275%,20.784314%,57.647061%);fill-opacity:1;" d="M 85.191406 233.609375 C 74.980469 233.609375 66.710938 241.75 66.710938 251.800781 C 66.710938 261.851562 74.988281 269.988281 85.191406 269.988281 C 95.398438 269.988281 103.671875 261.851562 103.671875 251.800781 C 103.671875 241.75 95.398438 233.609375 85.191406 233.609375 Z M 85.191406 260.351562 C 80.789062 260.351562 77.21875 256.519531 77.21875 251.800781 C 77.21875 247.078125 80.789062 243.25 85.191406 243.25 C 89.589844 243.25 93.160156 247.078125 93.160156 251.800781 C 93.160156 256.519531 89.589844 260.351562 85.191406 260.351562 Z M 428.890625 233.609375 C 419.871094 233.609375 412.558594 241.75 412.558594 251.800781 C 412.558594 261.851562 419.871094 269.988281 428.890625 269.988281 C 437.910156 269.988281 445.21875 261.851562 445.21875 251.800781 C 445.21875 241.75 437.910156 233.609375 428.890625 233.609375 Z M 431.21875 260.539062 C 426.730469 260.539062 423.070312 256.558594 423.070312 251.660156 C 423.070312 246.761719 426.710938 242.78125 431.21875 242.78125 C 435.710938 242.78125 439.371094 246.761719 439.371094 251.660156 C 439.359375 256.558594 435.71875 260.539062 431.21875 260.539062 Z M 50.820312 220 C 49.101562 220 30 220 30 220 C 30 220 30 269.828125 30 269.949219 C 30 270.058594 41.269531 269.949219 41.269531 269.949219 C 41.101562 269.769531 41.390625 251.839844 41.390625 251.839844 C 41.390625 251.839844 47.019531 251.839844 51.058594 251.839844 C 55.101562 251.839844 66.019531 248.488281 66.019531 235.230469 C 66 222.417969 53.148438 220 50.820312 220 Z M 47.78125 242.660156 C 43.640625 242.660156 41.738281 242.441406 41.628906 242.550781 L 41.628906 229.761719 C 41.628906 229.761719 45.429688 229.761719 47.78125 229.761719 C 51.078125 229.761719 54.960938 231.851562 54.960938 235.78125 C 54.96875 239.21875 51.921875 242.660156 47.78125 242.660156 Z M 119.769531 268.75 L 109.140625 268.75 L 109.140625 234.511719 L 119.21875 234.511719 L 119.21875 238.941406 C 119.21875 238.941406 122.289062 234.109375 128.289062 234.109375 C 129.980469 234.109375 131.140625 234.328125 131.140625 234.328125 L 131.140625 244.898438 C 131.140625 244.898438 129.960938 244.449219 127.910156 244.449219 C 125.851562 244.449219 119.871094 245.699219 119.871094 253.25 C 119.859375 260.46875 119.679688 268.75 119.769531 268.75 Z M 398.398438 268.75 L 387.769531 268.75 L 387.769531 234.511719 L 397.851562 234.511719 L 397.851562 238.941406 C 397.851562 238.941406 400.917969 234.109375 406.917969 234.109375 C 408.609375 234.109375 409.769531 234.328125 409.769531 234.328125 L 409.769531 244.898438 C 409.769531 244.898438 408.589844 244.449219 406.539062 244.449219 C 404.480469 244.449219 398.5 245.699219 398.5 253.25 C 398.488281 260.46875 398.308594 268.75 398.398438 268.75 Z M 139.769531 244.449219 L 133.679688 244.449219 L 133.679688 234.519531 L 135.980469 234.519531 C 138.621094 234.519531 140.761719 232.429688 140.761719 229.851562 L 140.761719 224.71875 L 150.179688 224.71875 L 150.179688 234.648438 L 157.167969 234.648438 L 157.167969 244.308594 L 150.230469 244.308594 C 150.230469 244.308594 150.230469 254.53125 150.230469 256.488281 C 150.230469 258.460938 152.101562 260.289062 154.210938 260.289062 C 155.710938 260.289062 156.929688 259.78125 156.929688 259.78125 L 153.328125 269.261719 C 153.328125 269.261719 152.71875 269.53125 151.21875 269.53125 C 149.71875 269.53125 139.78125 268.570312 139.78125 258.441406 C 139.769531 248.351562 139.71875 244.410156 139.769531 244.449219 Z M 324.230469 244.449219 L 318.140625 244.449219 L 318.140625 234.519531 L 320.441406 234.519531 C 323.078125 234.519531 325.21875 232.429688 325.21875 229.851562 L 325.21875 224.71875 L 334.640625 224.71875 L 334.640625 234.648438 L 341.628906 234.648438 L 341.628906 244.308594 L 334.691406 244.308594 C 334.691406 244.308594 334.691406 254.53125 334.691406 256.488281 C 334.691406 258.460938 336.558594 260.289062 338.667969 260.289062 C 340.167969 260.289062 341.917969 259.460938 341.917969 259.460938 L 341.917969 268.53125 C 341.917969 268.53125 339.25 269.550781 335.660156 269.550781 C 333.28125 269.550781 324.21875 268.589844 324.21875 258.460938 C 324.230469 248.351562 324.179688 244.410156 324.230469 244.449219 Z M 188.691406 220 L 176.230469 220 L 157 270 L 168.601562 270 L 172.300781 259.789062 L 191.210938 259.789062 L 195.148438 270 L 207.289062 270 Z M 175.789062 249.628906 L 181.960938 232.660156 L 187.878906 249.628906 Z M 202.898438 234.578125 L 214.429688 234.578125 L 222.460938 255.601562 L 230.089844 234.578125 L 241.210938 234.578125 L 228.140625 268.820312 L 217.261719 268.820312 Z M 259.480469 261.140625 C 253.378906 261.140625 251.679688 254.179688 251.679688 254.179688 L 276.328125 254.179688 C 276.328125 246.359375 274.75 233.570312 259.140625 233.570312 C 243.050781 233.570312 241.339844 248.691406 241.339844 251.839844 C 241.339844 259.269531 246.550781 269.96875 259.691406 269.96875 C 272.839844 269.96875 275.710938 259.191406 275.710938 259.191406 L 267.148438 256.449219 C 267.160156 256.460938 265.578125 261.140625 259.480469 261.140625 Z M 259.28125 241.808594 C 265.441406 241.808594 266.050781 247.558594 266.050781 247.558594 L 251.878906 247.558594 C 251.890625 246.230469 253.660156 241.808594 259.28125 241.808594 Z M 281.789062 268.820312 L 281.789062 234.578125 L 292.128906 234.578125 L 292.128906 238.039062 C 292.128906 238.039062 295.941406 233.519531 302.46875 233.519531 C 309 233.519531 314.578125 240.03125 314.578125 245.21875 C 314.578125 250.410156 314.578125 268.820312 314.578125 268.820312 L 304.109375 268.820312 C 304.109375 268.820312 304.109375 251.410156 304.109375 248.488281 C 304.109375 244.820312 300.980469 243.339844 298.261719 243.339844 C 295.140625 243.339844 292.128906 245.359375 292.128906 249.261719 C 292.128906 252.648438 292.128906 268.820312 292.128906 268.820312 Z M 380.199219 234.648438 L 380.199219 268.890625 L 369.859375 268.890625 L 369.859375 265.429688 C 369.859375 265.429688 366.050781 269.949219 359.519531 269.949219 C 352.988281 269.949219 347.410156 263.441406 347.410156 258.25 C 347.410156 253.058594 347.410156 234.648438 347.410156 234.648438 L 357.878906 234.648438 C 357.878906 234.648438 357.878906 252.058594 357.878906 254.980469 C 357.878906 258.648438 361.011719 260.128906 363.730469 260.128906 C 366.851562 260.128906 369.859375 258.109375 369.859375 254.210938 C 369.859375 250.820312 369.859375 234.648438 369.859375 234.648438 Z M 380.199219 234.648438 "/>
<path style=" stroke:none;fill-rule:nonzero;fill:rgb(15.686275%,20.784314%,57.647061%);fill-opacity:1;" d="M 439.429688 234.5 L 450 234.5 L 450 268.839844 L 439.429688 268.839844 Z M 130 290 L 136.191406 290 L 145.289062 321.070312 L 156.03125 290 L 162.140625 290 L 172.71875 321.378906 L 181.988281 290 L 187.851562 290 L 175.96875 330 L 169.949219 330 L 158.800781 297.851562 L 148.148438 330 L 142.210938 330 Z M 210.640625 290 C 199 290 189.558594 298.960938 189.558594 310 C 189.558594 321.039062 198.988281 330 210.640625 330 C 222.289062 330 231.71875 321.039062 231.71875 310 C 231.71875 298.960938 222.28125 290 210.640625 290 Z M 210.640625 325.121094 C 202.21875 325.121094 195.398438 318.351562 195.398438 310.011719 C 195.398438 301.667969 202.21875 294.898438 210.640625 294.898438 C 219.058594 294.898438 225.878906 301.667969 225.878906 310.011719 C 225.878906 318.351562 219.058594 325.121094 210.640625 325.121094 Z M 267.417969 301.238281 C 267.417969 292.480469 259.039062 290 255.300781 290 C 251.550781 290 238.789062 290 238.789062 290 L 238.789062 330 L 244.488281 330 L 244.488281 313.648438 L 250.839844 313.648438 L 260.511719 330 L 267.351562 330 L 257.5 313.339844 C 257.5 313.328125 267.417969 311.699219 267.417969 301.238281 Z M 244.640625 308.601562 L 244.640625 294.730469 C 244.640625 294.730469 250.25 294.730469 253.339844 294.730469 C 256.429688 294.730469 261.480469 296.511719 261.480469 301.320312 C 261.480469 306.121094 257.328125 308.601562 254.890625 308.601562 C 252.449219 308.601562 244.640625 308.601562 244.640625 308.601562 Z M 274.339844 290 L 274.339844 330 L 300.289062 330 L 300.289062 324.851562 L 280.191406 324.851562 L 280.191406 290 C 280.199219 290 274.167969 290 274.339844 290 Z M 321.121094 290 C 317.621094 290 305.25 290 305.25 290 L 305.25 330 C 305.25 330 317.050781 330 321.199219 330 C 325.351562 330 340 326.839844 340 309.691406 C 340 292.550781 324.621094 290 321.121094 290 Z M 320.308594 325.058594 C 317.300781 325.058594 311.121094 325.058594 311.121094 325.058594 L 311.121094 295.019531 C 311.199219 294.949219 318.441406 294.949219 321.371094 294.949219 C 324.300781 294.949219 333.898438 297.890625 333.898438 310.320312 C 333.890625 322.738281 323.320312 325.058594 320.308594 325.058594 Z M 320.308594 325.058594 "/>
</g>
</svg>
